#!OML:ASF F:\VICON\USERDATA\INSTALL\rory3\rory3.ASF
:FULLY-SPECIFIED
:DEGREES
37
root 0.3907045228914282 18.364923821476285 15.419506469500927 3.9094050522766954 -4.519238665875414 1.461664840239557
lfemur -1.836675698038416 -0.020579886998900343 -25.617498216067208
ltibia 60.777702207522786
lfoot 12.299150309962975 -14.35828340269355
ltoes -2.4121097778499996
rfemur -29.62047288102866 2.6408345212031747 24.453163620331583
rtibia 35.16597321418712
rfoot 0.2763080337427516 -3.246638096199165
rtoes -0.5803469024889794
lowerback 11.896395800687735 -1.189261205821457 -2.3967391116752363
upperback -0.4896390418800427 -0.8088729373771333 1.7502403479569686
thorax -7.866348271026741 -0.5657910525674373 2.4092837645797207
lowerneck -19.765131598543796 -2.767821512173471 -2.1848022586740448
upperneck 10.945631805691319 -4.238149426192549 2.8154230285876034
head 6.707700583000876 -1.8588900510382385 0.8285110674888682
lclavicle 4.287489401376639e-15 5.75894733352974e-17
lhumerus -36.452320499024594 -17.237706919577708 96.75160268985483
lradius 116.21067773690945
lwrist 28.730542117620438
lhand -28.815271782266432 2.173692319361212
lfingers 7.125019999999998
lthumb -2.7135748175239556 32.059161349005535
rclavicle 4.2874560578032854e-15 5.756553910732964e-17
rhumerus -53.99053178315822 10.102368509728205 -97.44475724307101
rradius 102.81580104584428
rwrist -10.0047194978777
rhand -20.0804077022532 36.64597245701321
rfingers 7.125019999999998
rthumb 6.199677863830092 6.6283211701403895
38
root 0.3900301675503519 18.21595998045099 15.88390113949232 3.1337898231983443 -5.164659927755562 1.0518695177634236
lfemur -2.6298750444960355 1.041175724751053 -24.408804868990924
ltibia 68.63807152507546
lfoot 11.722099431482201 -14.760946306040992
ltoes 0.1654355302660866
rfemur -28.291045921521754 3.0613669870860942 25.15204139494109
rtibia 40.934474211008876
rfoot -0.7462622388777665 -3.083281472032101
rtoes -0.17188458156729114
lowerback 12.375917760618554 -1.062995229870042 -2.0819503031855167
upperback -0.26018241267965553 -0.17689457535227704 1.8336134224612635
thorax -7.9883390226400355 -0.37511599403633145 2.179373504469662
lowerneck -19.66119769656371 -2.757512533706938 -2.0916651157685107
upperneck 10.837453904753064 -4.366849776343265 2.687721535461566
head 6.608399793022267 -1.9053147857813768 0.7797859749519737
lclavicle 4.287489401382393e-15 5.75894733394276e-17
lhumerus -37.361097526303396 -16.360927606716228 96.5311630575956
lradius 116.28009122316153
lwrist 28.42797272301002
lhand -28.74156677231125 2.090208104462379
lfingers 7.125019999999998
lthumb -2.6599265606471056 31.811610601150313
rclavicle 4.2874560578926216e-15 5.756553917145527e-17
rhumerus -52.67906150583534 10.030777180950434 -97.33114413345983
rradius 102.46958082094066
rwrist -10.069905840416945
rhand -20.182282959827006 36.69626619339201
rfingers 7.125019999999998
rthumb 6.150535015089753 6.742680087909967
39
root 0.3855757736504159 18.037230839898587 16.54945920228723 2.287908376975797 -5.827970314271559 0.47149375219954237
lfemur -5.770269768343267 2.014805021751123 -23.30672923401784
ltibia 74.371650925158
lfoot 11.18514292669867 -14.319596389441427
ltoes -0.06750701495588451
rfemur -27.094119211571616 3.3986614709940652 26.111874910410812
rtibia 46.10989711747791
rfoot -3.0253381251167193 -2.588179229660305
rtoes 0.009551287493702043
lowerback 12.972895018641958 -0.8191270726288442 -1.6887404358584395
upperback -0.06956851851805013 0.46512831441643177 1.9504210333897245
thorax -8.113145033187916 -0.04887300613821999 2.0061215224890936
lowerneck -19.813731948267915 -2.7866683142833155 -1.9859615991696014
upperneck 10.725149688257778 -4.4930030153205704 2.5559850664581054
head 6.547872252439704 -1.9250303728510836 0.7467591987554894
lclavicle 4.287489401388524e-15 5.75894733438286e-17
lhumerus -39.092087699690225 -15.153310727210986 96.54013656282736
lradius 116.41047772742182
lwrist 28.22706515332619
lhand -28.89377516272789 1.7738463114988678
lfingers 7.125019999999998
lthumb -2.716332241822648 31.529891408903342
rclavicle 4.287456057945742e-15 5.756553920958567e-17
rhumerus -51.38697931680908 10.026852328229978 -97.3459477927639
rradius 102.36420845361523
rwrist -9.90931636380138
rhand -20.343950322970397 36.51273337575185
rfingers 7.125019999999998
rthumb 5.952342752604774 6.5120831292147825
40
root 0.3752459124015585 17.845591181762956 17.73096447956161 1.5255536198301125 -6.4027594175784674 0.05524592992858124
lfemur -6.523512132030742 3.4713710854521196 -21.263288959564385
ltibia 78.18253389478929
lfoot 9.593962071834595 -13.462287987625073
ltoes 0.13319909681152886
rfemur -25.377713811289908 4.304418299371578 27.612777398945653
rtibia 49.429302316263076
rfoot -5.916644893862578 -2.3338579687380747
rtoes -0.09101147418757916
lowerback 13.552603719057467 -0.4986053162058932 -1.2913987552165251
upperback 0.10136983013866674 1.1819914863652308 2.1229169791508413
thorax -8.274447220675768 0.2558908686467356 1.7866309161727407
lowerneck -19.99487390772125 -2.8104156975656545 -1.8441241275386413
upperneck 10.49949819350493 -4.632151304969294 2.4747472141162388
head 6.48727827409259 -1.9597108460773147 0.7117649841933121
lclavicle 4.28748940138694e-15 5.758947334269128e-17
lhumerus -41.34637436564049 -14.04986618872573 96.62538623719067
lradius 116.48887793037335
lwrist 28.182529329822373
lhand -28.970448259686812 1.768606446276208
lfingers 7.125019999999998
lthumb -2.7877405065084235 31.397265088951233
rclavicle 4.287456057948924e-15 5.756553921187003e-17
rhumerus -49.72066587557601 10.235177094738653 -97.48120311943944
rradius 102.49827670498726
rwrist -9.585980966890808
rhand -20.226514849230725 36.50688514004755
rfingers 7.125019999999998
rthumb 5.937310422599483 6.364582707432396
41
root 0.35854929833514393 17.69965072917144 19.752446886477465 1.4237915246262227 -6.119959846760815 -0.6983919751182518
lfemur -10.621082309316527 4.417162789760248 -19.74531785927354
ltibia 81.38638903291854
lfoot 7.991359816863443 -12.662683288695456
ltoes 0.2229550776788507
rfemur -23.806986418998907 5.635276687080248 29.249537103987812
rtibia 51.68833938617085
rfoot -9.24559819970222 -2.8086259231356214
rtoes 0.0266847475287606
lowerback 14.05782344463841 -0.13475716962293416 -0.7420532731358231
upperback 0.16653896907265908 1.8325996947335264 2.3655742803364603
thorax -8.386728819650127 0.5225064439035736 1.4851392345502767
lowerneck -20.19728378578667 -2.9120592707811532 -1.7070543265459777
upperneck 10.152124057277804 -4.792645109745349 2.455448362138995
head 6.4381487951067475 -1.9803797619647967 0.6958501152949683
lclavicle 4.2874894013840705e-15 5.758947334063213e-17
lhumerus -42.853691666506855 -12.766044664915794 96.93569503078767
lradius 116.23937186217701
lwrist 28.210052935416048
lhand -29.117403784258933 1.9132490560249131
lfingers 7.125019999999998
lthumb -2.9070555471529747 31.504648324572333
rclavicle 4.2874560579016296e-15 5.756553917792149e-17
rhumerus -47.77059910297801 10.650282941517148 -97.71578786284879
rradius 102.8396635900083
rwrist -9.333613993740766
rhand -20.237508219604685 36.560457248643765
rfingers 7.125019999999998
rthumb 5.9283511070508474 6.390376170372268
42
root 0.31949692083205805 17.55188219215325 20.414219394520654 1.5072834497743803 -6.00541246567595 -1.7033305638928273
lfemur -14.177462487328098 5.51326649046061 -17.564040970163333
ltibia 84.14667813505825
lfoot 6.255863038075719 -11.876747548098749
ltoes -0.5108547139795769
rfemur -21.57364392077746 7.091875800388221 31.66296470834554
rtibia 52.929138612290984
rfoot -12.536489029909573 -4.1624854264914894
rtoes 0.3205034352137589
lowerback 14.452377624889971 0.15206665553552046 0.030041393768938107
upperback 0.16452587635381244 2.3568132580250274 2.59753575045383
thorax -8.52886346112476 0.7106348423774225 0.982057865649262
lowerneck -20.285353219329618 -2.99094937781528 -1.572212000888992
upperneck 9.827780147642752 -4.960545080547526 2.4940076918539584
head 6.3618282185130655 -2.0466400299930094 0.6707559597975568
lclavicle 4.2874894013840705e-15 5.758947334063213e-17
lhumerus -45.34052282735304 -12.010770835058427 97.07614296884823
lradius 115.59906621843876
lwrist 28.205030296477812
lhand -29.17126081770948 2.148897131596172
lfingers 7.125019999999998
lthumb -2.9915910692624994 31.60060259067339
rclavicle 4.2874560579016296e-15 5.75655391779217e-17
rhumerus -45.62768693925386 11.251199164352649 -97.95801589183708
rradius 103.2734757893943
rwrist -9.260063839570288
rhand -20.198591089363468 36.616868243755235
rfingers 7.125019999999998
rthumb 6.0009618598455 6.483984832813254
43
root 0.28760578096683986 17.421572737681263 21.379219588755596 1.7733090228761466 -5.815568571462478 -2.815934772351893
lfemur -18.57205624834048 6.3089716995132585 -15.956153297170056
ltibia 86.06701048851777
lfoot 4.501809632430668 -11.201174205004133
ltoes -2.0671221829242503
rfemur -19.57644902924409 7.923816434188802 33.25891594173113
rtibia 52.95271349545828
rfoot -14.74044455001816 -5.778353663131444
rtoes 0.9715044012367754
lowerback 14.760336203383682 0.3702227679868917 0.9761384256955488
upperback 0.13536653173780244 2.8031923300488018 2.7312367856060464
thorax -8.636188404412065 0.890617448126316 0.5038376963664211
lowerneck -20.256475180871654 -3.0813369076639114 -1.4625568099736226
upperneck 9.551418393259908 -5.165608730079042 2.550397017038554
head 6.293785020813974 -2.1101285784117216 0.6568900748378008
lclavicle 4.2874894013840705e-15 5.758947334063213e-17
lhumerus -47.16362360696802 -11.204786868985925 97.35229527273974
lradius 114.66749035673571
lwrist 28.124723540512367
lhand -29.315355445713553 2.2249348408234764
lfingers 7.125019999999998
lthumb -3.0711547204038876 31.651407224431733
rclavicle 4.287456057901629e-15 5.756553917792114e-17
rhumerus -43.258795834601365 12.01215658007571 -98.09598376757602
rradius 103.70877802000453
rwrist -9.23231865084484
rhand -20.289104676536414 36.570277052396364
rfingers 7.125019999999998
rthumb 5.940728690911579 6.4616148464302725
